<svg xmlns="http://www.w3.org/2000/svg" xmlns:xlink="http://www.w3.org/1999/xlink" viewBox="0 0 64 64"><defs><linearGradient id="b" x1="32" x2="32" y1="54" y2="12" gradientUnits="userSpaceOnUse"><stop offset="0" stop-color="#002237"/><stop offset="1" stop-color="#003352"/></linearGradient><linearGradient id="c" x1="32" x2="32" y1="8" y2="50" gradientUnits="userSpaceOnUse"><stop offset="0" stop-color="#e4991f"/><stop offset="1" stop-color="#d4651c"/></linearGradient><linearGradient id="d" x1="18" x2="18" y1="8" y2="32" gradientUnits="userSpaceOnUse"><stop offset="0" stop-color="#137dbf"/><stop offset="1" stop-color="#02476c"/></linearGradient><linearGradient id="e" x1="44" x2="44" y1="8" y2="50" gradientUnits="userSpaceOnUse"><stop offset="0" stop-color="#ffc033"/><stop offset="1" stop-color="#ef8e2e"/></linearGradient><linearGradient id="a" x1="44" x2="44" y1="38" y2="40" gradientUnits="userSpaceOnUse"><stop offset="0" stop-color="#000406"/><stop offset="1" stop-color="#001521"/></linearGradient><linearGradient id="f" x1="42.06" x2="42.06" y1="34" y2="36" xlink:href="#a"/><linearGradient id="g" y1="30" y2="32" xlink:href="#a"/><linearGradient id="h" x1="42.06" x2="42.06" y1="26" y2="28" xlink:href="#a"/><linearGradient id="i" y1="22" y2="24" xlink:href="#a"/><linearGradient id="j" x1="32" x2="32" y1="8" y2="54" xlink:href="#a"/></defs><g data-name="Layer 2"><rect width="58" height="42" x="3" y="12" fill="url(#b)" rx="1"/><path fill="url(#c)" d="M56 9v37a1 1 0 0 1-1 1H42.72a19 19 0 0 0-8.5 2l-1.77.88c-.7.35-1.13-.21-2.67-.88a19 19 0 0 0-8.5-2H9a1 1 0 0 1-1-1V9a1 1 0 0 1 1-1h13a21.07 21.07 0 0 1 8.67 2.2l1.33.66 1.33-.66A21.12 21.12 0 0 1 42.72 8H55a1 1 0 0 1 1 1Z"/><path fill="url(#d)" d="M22 8v23a1 1 0 0 1-1.55.83L18 30.2l-2.45 1.63A1 1 0 0 1 14 31V8h8Z"/><path fill="url(#e)" d="M55 8H42.72A22.19 22.19 0 0 0 32 10.88V50c1 0 4.3-3 10.72-3H55a1 1 0 0 0 1-1V9a1 1 0 0 0-1-1Z"/></g><g data-name="Layer 3"><path fill="url(#a)" d="M38 38h12v2H38z"/><path fill="url(#f)" d="M38 34h8.13v2H38z"/><path fill="url(#g)" d="M38 30h12v2H38z"/><path fill="url(#h)" d="M38 26h8.13v2H38z"/><path fill="url(#i)" d="M38 22h12v2H38z"/><path fill="url(#j)" d="M60 12h-4V9a1 1 0 0 0-1-1H42.72A22.19 22.19 0 0 0 32 10.88 22.31 22.31 0 0 0 21.28 8H9a1 1 0 0 0-1 1v3H4a1 1 0 0 0-1 1v40a1 1 0 0 0 1 1h56a1 1 0 0 0 1-1V13a1 1 0 0 0-1-1Zm-17.28-2H54v35H42.72A22.21 22.21 0 0 0 33 47.38V12.62A20.13 20.13 0 0 1 42.72 10ZM20 10v19.13l-1.45-1a1 1 0 0 0-1.1 0l-1.45 1V10Zm-10 0h4v21a1 1 0 0 0 1.55.83L18 30.2l2.45 1.63A1 1 0 0 0 22 31V10a20.22 20.22 0 0 1 9 2.6v34.78A21.25 21.25 0 0 0 21.28 45H10Zm49 42H5V14h3v32a1 1 0 0 0 1 1h12.28a19 19 0 0 1 8.5 2c1.6.7 2 1.23 2.67.88l1.77-.88a19 19 0 0 1 8.5-2H55a1 1 0 0 0 1-1V14h3Z"/></g></svg>