<svg xmlns="http://www.w3.org/2000/svg" viewBox="0 0 64 64"><path fill="#ff6663" d="M9.03 44.38c1.21-.56 2.59-.82 4.22-.82 1.98 0 4.1.38 6.33.85.93 4.45 1.3 7.8.04 10.55L9.03 44.38zm21.92-4.15c-1.98 0-4.1-.38-6.33-.85-1.22-5.87-1.48-9.84 1.72-13.04 1.78-1.78 3.85-2.58 6.7-2.58 1.98 0 4.1.38 6.33.85 1.22 5.87 1.48 9.84-1.72 13.04-1.77 1.79-3.84 2.58-6.7 2.58zm19.8-19.8c-1.98 0-4.1-.38-6.33-.85-.93-4.45-1.3-7.8-.04-10.55l10.59 10.59c-1.21.55-2.58.81-4.22.81z"/><g fill="#542c2c"><path d="M60.64 18.92c.58.58.58 1.53 0 2.12-4.88 4.88-11.04 4.21-16.78 3.02.25 1.18.47 2.38.63 3.55.11.82-.47 1.58-1.29 1.69-.06.01-.13.01-.2.01-.74 0-1.38-.54-1.48-1.3-.21-1.51-.54-3.09-.88-4.65-5.78-1.27-11.21-2.22-15.36 1.92-.14.14-.28.29-.41.44-3.09 3.44-2.87 7.66-2.16 11.74.15.81-.4 1.59-1.22 1.73-.08.02-.17.03-.26.03s-.18-.01-.26-.02c-.6-.11-1.1-.59-1.21-1.22-.85-4.8-1.1-10.32 3.4-14.82 4.88-4.87 11.04-4.21 16.78-3.02-1.19-5.74-1.86-11.9 3.02-16.78.59-.58 1.54-.58 2.12 0 .59.59.59 1.54 0 2.12-.14.14-.28.29-.41.43-3.66 4.09-2.74 9.35-1.51 14.93 5.38 1.18 10.47 2.09 14.49-1.14.3-.24.59-.5.87-.78a1.49 1.49 0 0 1 2.12 0z"/><path d="M57.99 16.27c.59.59.59 1.54 0 2.13-.29.29-.67.43-1.06.43-.38 0-.76-.14-1.06-.43L45.6 8.13c-.51-.52-.57-1.31-.19-1.89.05-.08.12-.16.19-.23.59-.59 1.54-.59 2.13 0l10.26 10.26zm-8 .37c.58.59.58 1.54 0 2.12-.29.3-.68.44-1.06.44-.39 0-.77-.14-1.06-.44l-2.63-2.63a1.49 1.49 0 0 1 0-2.12c.58-.58 1.53-.58 2.12 0l2.63 2.63zm-6.74 15.78c.82.16 1.34.95 1.18 1.77-.14.68-.33 1.35-.56 1.99-.23.6-.8.98-1.41.98-.17 0-.35-.03-.52-.1a1.497 1.497 0 0 1-.89-1.92c.18-.49.33-1.01.44-1.55.16-.81.95-1.33 1.76-1.17zm-2.41 6.3c.58.58.58 1.53 0 2.12-4.88 4.88-11.04 4.21-16.78 3.02 1.24 5.92 1.88 11.88-3.02 16.78-.29.29-.68.44-1.06.44s-.77-.15-1.06-.44a1.49 1.49 0 0 1 0-2.12c.14-.14.28-.29.41-.43 3.66-4.09 2.74-9.35 1.51-14.93-5.19-1.15-10.09-2.02-14.04.8-.46.32-.89.69-1.32 1.12-.29.29-.67.44-1.06.44-.38 0-.76-.15-1.06-.44-.58-.58-.58-1.53 0-2.12 5.06-5.06 11.5-4.15 17.42-2.88.56.12 1.11.24 1.65.36 5.73 1.27 11.17 2.48 15.42-.94.3-.24.59-.5.87-.78a1.49 1.49 0 0 1 2.12 0zm-2.05-36c.71.44.92 1.36.49 2.07-.28.45-.54.92-.76 1.39-.26.54-.8.86-1.36.86-.21 0-.43-.05-.64-.14a1.497 1.497 0 0 1-.71-2c.27-.57.58-1.14.92-1.69.43-.71 1.36-.92 2.06-.49zm-.23 25.35c.59.58.59 1.53 0 2.12-.29.29-.67.44-1.06.44-.38 0-.77-.15-1.06-.44l-2.63-2.63a1.49 1.49 0 0 1 0-2.12 1.49 1.49 0 0 1 2.12 0l2.63 2.63z"/><path d="M38.19 36.07c.59.59.59 1.54 0 2.12-.29.3-.67.44-1.06.44-.38 0-.76-.14-1.06-.44L25.81 27.93a1.49 1.49 0 0 1 0-2.12 1.49 1.49 0 0 1 2.12 0l10.26 10.26zm-.94-19.85c.1.82-.49 1.56-1.32 1.66-.05 0-.11.01-.17.01-.75 0-1.4-.57-1.49-1.33-.27-2.37-.27-4.47 0-6.43.11-.82.87-1.38 1.69-1.28.82.12 1.39.87 1.28 1.69-.23 1.71-.23 3.56.01 5.68zm-7.06 20.22c.59.59.59 1.54 0 2.12-.29.29-.68.44-1.06.44s-.77-.15-1.06-.44l-2.63-2.63a1.49 1.49 0 0 1 0-2.12 1.49 1.49 0 0 1 2.12 0l2.63 2.63zM18.76 47.87c.59.58.59 1.53 0 2.12-.29.29-.67.44-1.06.44-.38 0-.77-.15-1.06-.44l-2.63-2.63c-.58-.59-.58-1.54 0-2.12a1.49 1.49 0 0 1 2.12 0l2.63 2.63zm-.36 8c.58.59.58 1.54 0 2.12-.3.3-.68.44-1.07.44-.38 0-.76-.14-1.06-.44L6.01 47.73c-.59-.59-.59-1.54 0-2.13.25-.26.58-.4.92-.43.43-.04.87.11 1.2.43L18.4 55.87z"/></g></svg>