<svg xmlns="http://www.w3.org/2000/svg" viewBox="0 0 32 32"><path fill="#eee" d="M12 2a1.13 1.13 0 0 0-1.13 1.13v10.4L2.16 28.29a1.13 1.13 0 0 0 1 1.71H16V2zm17.84 26.29-8.75-14.76V3.13A1.13 1.13 0 0 0 20 2h-4v28h12.87a1.13 1.13 0 0 0 1-1.71z"/><path fill="#69f0ae" d="M11.06 14.83a1.13 1.13 0 0 0-1.23.52L2.16 28.29a1.13 1.13 0 0 0 1 1.71H16V17.43a11.51 11.51 0 0 0-4.94-2.6Z"/><path fill="#e0e0e0" d="m29.84 28.29-8.75-14.76V3.13A1.13 1.13 0 0 0 20 2h-4v28h12.87a1.13 1.13 0 0 0 1-1.71Z"/><path fill="#69f0ae" d="m29.84 28.29-4.17-7a1.13 1.13 0 0 0-1.19-.53 8.18 8.18 0 0 1-7.68-2.56c-.26-.26-.53-.51-.8-.74V30h12.87a1.13 1.13 0 0 0 1-1.71Z"/><path fill="#00e676" d="m29.84 28.29-4.17-7a1.13 1.13 0 0 0-1.19-.53 8.18 8.18 0 0 1-7.68-2.56c-.26-.26-.53-.51-.8-.74V30h12.87a1.13 1.13 0 0 0 1-1.71Z"/></svg>