<svg xmlns="http://www.w3.org/2000/svg" viewBox="0 0 128 128"><g data-name="Layer 3"><path fill="#96b8ea" d="M74.2233,117.8076c5.6233-.4825,11.3421.065,17.0055-.3326a47.43,47.43,0,0,1,12.4447.8421l.0194-.0175a3.6169,3.6169,0,0,0,3.0368-2.6408,23.4818,23.4818,0,0,0-.8332-8.9559.8022.8022,0,0,0-.3977-.5208,29.8653,29.8653,0,0,0-2.8-12.6473c-3.0478-5.837-12.1175-8.0719-17.5984-10.49-.7451-.3287-1.7444.2559-2.4549,1.0885a3.3639,3.3639,0,0,0-1.5992,1.1953C78.0281,89.5455,68.4938,89.4908,63.89,89.42c-6.73-.1035-11.2821-1.974-16.2279-6.3719a1.1063,1.1063,0,0,0-.7946-.2678c.4291-.9757.3673-1.8413-.7621-1.7165a28.6471,28.6471,0,0,0-18.531,9.57c-6.0872,6.9454-6.511,15.9566-10.2832,24.0267-1,2.14.8482,2.05,2.2774,1.1321a.7535.7535,0,0,0,.6757.6526c17.6086,3.2929,35.3491,4.15,53.1276,3.8968A1.44,1.44,0,0,1,74.2233,117.8076Z"/><path fill="#f9bea5" d="M84.7312,36.3923c-.6224-.9475-1.8429-.5417-2.7683.2874a.97.97,0,0,0-.4832-.1969l1.1014-3.7453c.3214-1.0925-.5961-1.5845-1.5238-1.3721-.053.0121-.1021.0366-.1539.0528-2.5-2.3495-5.14-5.291-8.3971-6.32-3.75-1.185-9.0416-.643-12.8834-.3095-6.6333.5759-13.0906,4.2529-14.2462,11.2738-.25,1.5214.7569,1.5953,1.811,1.0626a1.7664,1.7664,0,0,0-.1756.7282l.0009.0335a.94.94,0,0,0-.1817-.0973c-1.0855-.3484-2.2793.8278-2.81,1.6078a6.1075,6.1075,0,0,0-1.205,4.2818c.0256.0494.0555.0934.0777.1468A17.1363,17.1363,0,0,0,45.1557,47.44a1.0352,1.0352,0,0,1,1.1184.2773,4.8881,4.8881,0,0,1,1.0243,1.9238,2.358,2.358,0,0,0,.213-.17,4.2383,4.2383,0,0,0,.551-.665c.2355,1.2575.5282,2.5087.8718,3.7384a3.1822,3.1822,0,0,0-.097.5774c-.23,3.724.599,7.4977,3.5239,10.024a1.2807,1.2807,0,0,0,1.299.1711,2.57,2.57,0,0,0-.1848.3725,1.9455,1.9455,0,0,0-.0462,1.508,2.0954,2.0954,0,0,0-.35,1.1163,55.0218,55.0218,0,0,1-.2449,7.547c-.2292,2.4171-.3054,3.2227-2.49,4.5123-.8463.5-2.1373,1.774-1.9021,2.89.2082.9881,1.0271,1.1552,1.8479.7736a.9826.9826,0,0,0,.6955,1.0781c4.44,1.5467,9.4859,3.1014,14.2551,2.6192,3.3683-.3406,8.1092-1.4487,10.4976-3.9829.5381-.5711,1.1785-1.6817.8219-2.5039l-.1164-.2682a.97.97,0,0,0-.3784-.444,1.1368,1.1368,0,0,0-.0848-.2608,24.534,24.534,0,0,1-2.3552-5.8969c-.53-2.53.152-4.8519.88-7.2629,1.7455-1.0353,2.9137-3.0363,3.9184-4.787a21.1835,21.1835,0,0,0,2.3941-7.0859,8.8616,8.8616,0,0,0,.7174-2.1213,1.259,1.259,0,0,0-.2171-1.0785A12.3863,12.3863,0,0,0,82.5938,45.76l-.0373-.1106a1.03,1.03,0,0,1,.6961-1.3548C84.5159,41.9491,86.3794,38.9016,84.7312,36.3923Z"/><path fill="#ead453" d="M79.3243,17.8448C75.9,15.072,72.52,14.6714,69.5815,17.4693c-1.2255-.5014-2.4426-1.0679-3.6706-1.5506a1.1973,1.1973,0,0,0-.4474-.4243,6.7239,6.7239,0,0,0-4.705-.6509,8.1,8.1,0,0,0-2.1721.3746C54.7465,16.4517,51.8719,19.9036,49.26,23a4.4911,4.4911,0,0,0-1.8548,1.5739c-1.21,1.7318-2.4376,3.49-3.8123,5.1054a16.3272,16.3272,0,0,1-2.0067.823,4.3606,4.3606,0,0,0-2.224,3.0767c-.2507.1721-.4934.3528-.7555.512-.8788.5339-2.0849,1.7382-1.9021,2.89.1737,1.0954,1.2285,1.1748,2.0744.6609A24.9919,24.9919,0,0,0,42.1372,35.17a1.653,1.653,0,0,0-.0288,1.2725c.5015,1.076,1.8491.3527,2.4939-.104A24.6347,24.6347,0,0,0,46.8551,34.51a.9737.9737,0,0,0,.76.1542c7.377-.8972,13.3986-4.9635,19.242-9.27,1.5062,1.8574,4.2692,2.9446,6.82,3.8288a.8436.8436,0,0,0,.0749.1873,6.4214,6.4214,0,0,0,6.7706,2.6955c.49.6066,1.6438.6354,2.76-.5531C86.0044,28.6534,82.7476,20.6163,79.3243,17.8448ZM56.9307,28.1373a34.728,34.728,0,0,0,3.1423-2.2221,1.2585,1.2585,0,0,0,.1531.3808A37.4221,37.4221,0,0,1,56.9307,28.1373Z"/><path fill="#6f8fc9" d="M80.64,80.1588c-.0514.0385-.1048.0764-.1512.1162a16.7775,16.7775,0,0,1-5.5727,3.1837c-.0221.0011-.0376-.0055-.0606-.0034-2.5952.2442-5.1028,1.5348-7.712,1.4241-.85-.0361-1.8555.8693-2.4218,1.8469-.6094-.0721-1.218-.1485-1.8213-.2575-3.031-.1044-5.8942-.887-8.9783-1.3246a.7043.7043,0,0,1-.4229-.2163,4.6027,4.6027,0,0,0-.769.9215c-2.6042-.8448-4.83-2.2729-5.8967-4.7425-.8491-1.9665-4.5509,1.3258-3.7991,3.0671,3.1618,7.3232,14.4,7.4309,21.2381,7.203,1.0427-.0348,2.1128-.1166,3.1916-.2413Q68.539,91.1012,69.6219,91a1.9343,1.9343,0,0,0,.8438-.34c5.2327-1.0591,10.322-3.3787,13.3748-7.6728A10.3314,10.3314,0,0,1,80.64,80.1588Z"/></g><g data-name="Layer 2"><path d="M111.4088,115.0269c-1.7479-5.33-3.1341-10.77-4.8458-16.1111-1.3156-4.1051-2.5255-8.889-6.3219-11.3274-4.6147-2.964-10.3243-4.9759-15.4965-6.7056a40.4534,40.4534,0,0,1-5.1063-1.767,1.3827,1.3827,0,0,0-.5437-.3029A6.9161,6.9161,0,0,1,75.98,74.0755c-.6974-2.9119-.5062-6.3267-.563-9.3646,5.5058-4.4908,7.0315-12.1195,7.0185-19.8328,2.1627-.64,3.98-3.8177,3.9511-5.8605a4.46,4.46,0,0,0-2.8385-4.0512c2.3265-5.0392,1.0537-12.0358-2.2783-16.3046-2.6754-3.4277-7.8955-5.86-10.7638-1.2841-.39.6219.452,1.157.957.7384,5.0838-4.2124,9.3746,2.4276,10.3168,6.8245.6,2.8.05,5.41-.288,8.1167-.0131-.0955-.0258-.1935-.039-.2883-.1714-1.2322-2.3239-.955-2.1912.2966C80.4774,44.53,83.1849,61.0574,69.3839,66.02c-7.1673,2.5774-15.51-.0042-19.0235-7.0512-3.2786-6.5754-2.2377-15.7552-2.6673-23.0223,7.3013-1.46,14.4321-5.8016,19.7612-10.7031.501-.4608-.2211-1.126-.7291-.7292-6.7475,5.2691-13.5595,7.8673-21.54,10.6432-.5884.2047-.5491,1.2449.1579,1.1663.3253-.0362.65-.0886.9754-.137-.005.4008-.0108.8039-.02,1.2152-2.8215-.5542-4.5719,2.7053-4.51,5.1851.0556,2.231,1.8589,5.8157,4.36,5.3956.1709,5.01.964,9.9411,3.5963,13.8162a15.3381,15.3381,0,0,0,2.8254,3.1292c-.0776,2.5242-.1292,5.0491-.364,7.5655-.5127,5.4934-3.5345,6.6241-8.066,8.0935-5.4683,1.7731-11.5163,3.8766-16.38,7.0011-3.6063,2.3167-4.766,6.6132-6.0572,10.5191-1.8735,5.667-3.3085,11.47-5.1791,17.1382-.3264.9894.8973,1.5133,1.5647,1.015,6.7947,2.1836,14.1556,2.6623,21.2094,3.4147a221.0976,221.0976,0,0,0,24.3009.9848,253.2766,253.2766,0,0,0,47.0987-4.2235,1.1348,1.1348,0,0,0,.1416-.0258c.1368-.0267.2752-.0478.4119-.0748C111.8862,116.21,111.8781,115.2932,111.4088,115.0269ZM84.5134,40.1851A6.655,6.655,0,0,1,82.39,42.6559c-.0825-2.2215-.2713-4.4234-.5119-6.5364C83.7776,36.5751,85.48,37.9534,84.5134,40.1851ZM45.9515,45.5775a2.947,2.947,0,0,1-2.17-2.0914c-.7135-1.676-.08-5.1275,2.4812-4.7431-.067,2.2041-.16,4.5225-.1593,6.8572Zm6.8521,33.0738c1.7853-3.0607,1.4535-8.6537,1.1561-12.6868a18.2079,18.2079,0,0,0,13.8339,2.2389,18.2614,18.2614,0,0,0,6.2685-2.5126c-.298,4.09-.6583,9.706,1.1343,12.9605a4.9884,4.9884,0,0,0,1.2838,1.472c-8.6958,5.9215-17.7948,5.1319-27.2135,1.2727A7.1282,7.1282,0,0,0,52.8036,78.6513ZM18.6115,115.1926c1.7416-5.7948,3.34-11.6428,5.46-17.3128,1.6249-4.346,2.8634-7.1792,7.18-9.5406A81.2694,81.2694,0,0,1,42.0758,83.6c1.4293-.5282,3.3747-.928,5.2526-1.5073,8.9912,7.595,22.3243,5.8234,31.3352-.7092,2.4142,1.0333,5.3775,1.5206,7.2606,2.2165a105.097,105.097,0,0,1,9.9889,4.3267c4.6432,2.2862,6.2724,5.2956,8.0151,9.9532,2.1143,5.6508,3.7085,11.48,5.4434,17.2558-14.93,1.66-29.757,3.0551-44.8012,3.2287C49.2336,118.5413,33.6531,118.3618,18.6115,115.1926Z"/><path d="M58.4955 55.8823a6.4941 6.4941 0 005.56 1.62 5.7429 5.7429 0 004.1588-3.2119c.23-.6218-.5918-.9233-1.0051-.5851-1.111.9092-1.8894 1.7967-3.36 2.12a5.7217 5.7217 0 01-4.5613-.9694C58.6919 54.4252 57.9158 55.4175 58.4955 55.8823zM63.2028 41.8323a.41.41 0 00-.8193 0 12.6583 12.6583 0 01-1.0443 4.3583 7.5648 7.5648 0 00-.6983 2.1706c-.17 1.5678 1.9344 2.3291 3.25 2.56a.4133.4133 0 00.3986-.6846 6.8393 6.8393 0 00-2.5685-1.6431c.1847-1.08 1.0065-2.2972 1.2625-3.3309A10.2891 10.2891 0 0063.2028 41.8323zM54.5005 37.8348a3.54 3.54 0 00-.1887 1.3036 1.7628 1.7628 0 00.5728 1.1215.4757.4757 0 00.8034-.3327 6.1464 6.1464 0 00.0262-.884 2.4165 2.4165 0 01.0469-.8608A.6542.6542 0 0054.5005 37.8348zM71.0517 37.368c-.0308.6471-.2137 1.3894.2521 1.9087a.5967.5967 0 00.8381 0c.4639-.5172.2827-1.2638.252-1.9087A.6715.6715 0 0071.0517 37.368zM73.7371 30.9189c1.1486.8716 2.9293 1.9615 4.4242 1.8624a.7091.7091 0 00.3549-1.31c-1.1329-.6874-2.496-.9226-3.6532-1.6389a10.9647 10.9647 0 01-3.2619-3.0986c-.43-.6186-1.42-.0687-1.0254.5993A12.3077 12.3077 0 0073.7371 30.9189zM66.5013 16.7255c.4568.2227 1.009-.3682.5776-.7484C55.7283 5.9751 44.0327 28.2917 37.0825 33.4033c-.802.59-.0567 1.9412.7965 1.3627C46.6768 28.8007 53.2686 10.2727 66.5013 16.7255zM47.7961 29.6389a44.6313 44.6313 0 01-3.712 3.1845 13.3843 13.3843 0 00-2.9919 2.4848c-.21.289.1358.5851.4146.5394a8.0238 8.0238 0 003.71-2.304 20.9829 20.9829 0 003.0822-3.5165C48.5164 29.7233 48.05 29.395 47.7961 29.6389zM78.8339 84.8126c-4.7765 2.8009-9.0023 5.2661-14.751 5.4464-5.389.1692-13.1181-1.2277-17.4573-4.6737A.7326.7326 0 0045.59 86.6207c3.5872 4.5876 12.2378 5.6883 17.7052 5.7329 5.8282.0476 12.4421-1.973 16.4572-6.35A.7615.7615 0 0078.8339 84.8126z"/></g></svg>