<svg xmlns="http://www.w3.org/2000/svg" enable-background="new 0 0 512 512" viewBox="0 0 512 512"><path fill="#dce5ea" d="M472.5,470.9v30.2c0,6-4.9,10.9-10.9,10.9H50.4c-6,0-10.9-4.9-10.9-10.9v-30.2c0-79.7,64.7-144.4,144.4-144.4
			h144.2C407.8,326.6,472.5,391.2,472.5,470.9z"/><rect width="108.2" height="109.7" x="201.9" y="262.1" fill="#f4dfd7"/><path fill="#f4dfd7" d="M383,179.9c0,11.6-9.4,21.2-21.2,21.2l-1.9,14.8c-6.7,52.3-51.2,91.4-103.9,91.4l0,0
			c-52.7,0-97.2-39.1-103.9-91.4l-1.9-14.8c-11.7,0-21.2-9.5-21.2-21.2s9.4-21.2,21.2-21.2v-22.9c0-56.4,42.6-105.6,99-109.2
			c61.6-3.9,112.7,44.9,112.7,105.6v26.5C373.6,158.8,383,168.2,383,179.9z"/><path fill="#bec8cc" d="M236.6,0c-53.6,0-97,43.4-97,97v51.2c0,5.8,4.7,10.6,10.6,10.6l0,0c5.8,0,10.6-4.7,10.6-10.6v-10.6
			c0.5-17.2,10.3-32.8,25.6-40.6c3.6-2,8-1.8,11.3,0.5c17,11.9,37.6,17.4,58.3,15.7c20.6,1.7,41.2-3.8,58.2-15.7
			c3.4-2.4,7.8-2.6,11.4-0.5c15.3,7.8,25.2,23.4,25.7,40.6v10.6c0,5.8,4.7,10.6,10.6,10.6l0,0c5.8,0,10.6-4.7,10.6-10.6V97
			c0-53.6-43.4-97-97-97C275.4,0,236.6,0,236.6,0z"/><path fill="#e5cac3" d="M255.9 268.9c-12.8 0-25.6-4.8-35.6-14.3-2.2-2.1-2.3-5.5-.2-7.7s5.5-2.2 7.7-.2c15.8 15 40.4 15 56.2 0 2.2-2.1 5.6-2 7.7.2s2 5.6-.2 7.7C281.5 264.1 268.7 268.9 255.9 268.9zM290.5 179.4c-.7 0-1.4-.1-2.1-.4-2.8-1.2-4.1-4.3-2.9-7.1 3.4-8.2 12.8-12.1 21-8.7 3.9 1.6 7 4.7 8.7 8.7 1.2 2.8-.2 6-2.9 7.1-2.8 1.2-6-.2-7.1-2.9-.5-1.3-1.5-2.3-2.8-2.8s-2.7-.5-4 0-2.3 1.5-2.8 2.8C294.6 178.1 292.6 179.4 290.5 179.4zM221.6 179.4c-2.1 0-4.2-1.3-5-3.4-.5-1.3-1.5-2.3-2.8-2.8s-2.7-.5-4 0-2.3 1.5-2.8 2.8c-1.2 2.8-4.3 4.1-7.1 2.9-2.8-1.2-4.1-4.3-2.9-7.1 1.7-4 4.8-7.1 8.7-8.7 4-1.6 8.4-1.6 12.3 0 4 1.6 7 4.7 8.7 8.7 1.2 2.8-.2 6-2.9 7.1C223 179.2 222.3 179.4 221.6 179.4z"/><polygon fill="#ea9c96" points="291.7 477.3 266.7 512 245.3 512 220.3 477.3 244.1 407 267.9 407"/><path fill="#e2887d" d="M267.9,407h-23.8c-7.6-7.6-11.9-18-11.9-28.7v-12.9h47.6v12.9C279.8,389,275.5,399.4,267.9,407z"/><path fill="#d1dfe8" d="M342.2,333.3L309,380.1c-3.7,5.2-10.6,6.9-16.3,4L256,365.3l39.6-39.6c6.7-6.7,16-10.1,25.5-9.2l14,1.3
			C342.6,318.5,346.6,327.1,342.2,333.3z"/><path fill="#d1dfe8" d="M169.9,333.3l33.2,46.8c3.7,5.2,10.6,6.9,16.3,4l36.6-18.8l-39.6-39.6c-6.7-6.7-16-10.1-25.5-9.2l-14,1.3
			C169.4,318.5,165.4,327.1,169.9,333.3z"/></svg>